<?xml version="1.0" standalone="no"?>
<!DOCTYPE svg PUBLIC "-//W3C//DTD SVG 20010904//EN"
 "http://www.w3.org/TR/2001/REC-SVG-20010904/DTD/svg10.dtd">
<svg version="1.0" xmlns="http://www.w3.org/2000/svg"
 width="16.000000pt" height="16.000000pt" viewBox="0 0 16.000000 16.000000"
 preserveAspectRatio="xMidYMid meet">
<metadata>
Created by potrace 1.11, written by Peter Selinger 2001-2013
</metadata>
<g transform="translate(0.000000,16.000000) scale(0.002909,-0.002909)"
fill="#000000" stroke="none">
<path d="M0 4750 l0 -750 100 0 100 0 0 650 0 650 650 0 650 0 0 100 0 100
-750 0 -750 0 0 -750z"/>
<path d="M4000 5400 l0 -100 650 0 650 0 0 -650 0 -650 100 0 100 0 0 750 0
750 -750 0 -750 0 0 -100z"/>
<path d="M1930 2893 c-310 -852 -564 -1549 -565 -1550 0 -1 -68 -13 -151 -25
l-149 -23 -3 -123 -3 -122 541 0 541 0 -3 122 -3 123 -155 18 c-146 17 -156
20 -177 45 -12 15 -23 32 -23 37 0 6 66 198 147 428 l148 417 545 0 546 0 147
-417 c81 -230 147 -425 147 -434 0 -9 -9 -27 -19 -40 -17 -22 -33 -25 -173
-39 l-153 -15 -3 -122 -3 -123 676 0 675 0 0 123 0 123 -145 24 -145 24 -15
41 c-9 22 -267 717 -574 1545 l-559 1505 -264 3 -264 2 -564 -1547z m904 227
c118 -327 214 -596 212 -597 -2 -2 -199 -2 -438 -1 l-436 3 174 495 c95 272
192 549 216 614 32 92 44 115 50 100 4 -10 104 -287 222 -614z"/>
<path d="M0 750 l0 -750 750 0 750 0 0 100 0 100 -650 0 -650 0 0 650 0 650
-100 0 -100 0 0 -750z"/>
<path d="M5300 850 l0 -650 -650 0 -650 0 0 -100 0 -100 750 0 750 0 0 750 0
750 -100 0 -100 0 0 -650z"/>
</g>
</svg>
